#tb 0: 1001/24000
#media_type 0: video
#codec_id 0: rawvideo
#dimensions 0: 320x180
#sar 0: 1/1
0,          0,          0,        1,   230400, 0x10a99774
0,          1,          1,        1,   230400, 0xa18b90f8
0,          2,          2,        1,   230400, 0x837a95f9
0,          3,          3,        1,   230400, 0xc50d948b
0,          4,          4,        1,   230400, 0xdefc8eca
0,          5,          5,        1,   230400, 0x00498bdb
0,          6,          6,        1,   230400, 0x22458cdc
0,          7,          7,        1,   230400, 0xfad1418c
0,          8,          8,        1,   230400, 0xf09341dd
0,          9,          9,        1,   230400, 0x5ef141ac
0,         10,         10,        1,   230400, 0x6f2d815f
0,         11,         11,        1,   230400, 0x960880c2
0,         12,         12,        1,   230400, 0x4ba37f8f
0,         13,         13,        1,   230400, 0x3e678082
0,         14,         14,        1,   230400, 0x4f1c80da
0,         15,         15,        1,   230400, 0x69be82fd
0,         16,         16,        1,   230400, 0x81d29b80
0,         17,         17,        1,   230400, 0x5fdc9af7
0,         18,         18,        1,   230400, 0xb8969c2b
0,         19,         19,        1,   230400, 0xdb37a691
0,         20,         20,        1,   230400, 0xdeb6a645
0,         21,         21,        1,   230400, 0xf5c6a606
0,         22,         22,        1,   230400, 0x110ab482
0,         23,         23,        1,   230400, 0x5bddb45b
0,         24,         24,        1,   230400, 0xc18ab32a
0,         25,         25,        1,   230400, 0x22c1b2be
0,         26,         26,        1,   230400, 0xaa7cb5c3
0,         27,         27,        1,   230400, 0x5e8fb50f
0,         28,         28,        1,   230400, 0x20e1b42a
0,         29,         29,        1,   230400, 0x0c94c158
0,         30,         30,        1,   230400, 0x41adc2a3
0,         31,         31,        1,   230400, 0xbc359983
0,         32,         32,        1,   230400, 0x19bb9eea
0,         33,         33,        1,   230400, 0xfecd2f06
0,         34,         34,        1,   230400, 0x26ba3110
0,         35,         35,        1,   230400, 0xfdbcff0f
0,         36,         36,        1,   230400, 0x1f030028
0,         37,         37,        1,   230400, 0xccca1b0b
0,         38,         38,        1,   230400, 0x66f91b1f
0,         39,         39,        1,   230400, 0x0ef4366b
0,         40,         40,        1,   230400, 0x2fac271c
0,         41,         41,        1,   230400, 0xbef026a9
0,         42,         42,        1,   230400, 0x775726f5
0,         43,         43,        1,   230400, 0x35210966
0,         44,         44,        1,   230400, 0x0c36099a
0,         45,         45,        1,   230400, 0xc4f00a24
0,         46,         46,        1,   230400, 0xa7c409b9
0,         47,         47,        1,   230400, 0xa92d082b
0,         48,         48,        1,   230400, 0xfc49442e
0,         49,         49,        1,   230400, 0xb7de4997
0,         50,         50,        1,   230400, 0x16d24877
0,         51,         51,        1,   230400, 0xb0954a17
0,         52,         52,        1,   230400, 0x709f4766
0,         53,         53,        1,   230400, 0xe0dc4e4f
0,         54,         54,        1,   230400, 0xfa844b09
0,         55,         55,        1,   230400, 0xa62a4cf2
0,         56,         56,        1,   230400, 0x078d4a76
0,         57,         57,        1,   230400, 0x64c4505c
0,         58,         58,        1,   230400, 0xe8604f13
0,         59,         59,        1,   230400, 0x39a3503c
0,         60,         60,        1,   230400, 0x915a4cf1
0,         61,         61,        1,   230400, 0x495a5176
0,         62,         62,        1,   230400, 0xc0a75b2b
0,         63,         63,        1,   230400, 0x1a385761
0,         64,         64,        1,   230400, 0x9a245984
0,         65,         65,        1,   230400, 0xbe475ad9
0,         66,         66,        1,   230400, 0x8e275c85
0,         67,         67,        1,   230400, 0x5ba45436
0,         68,         68,        1,   230400, 0x80285097
0,         69,         69,        1,   230400, 0xbb1c5bfd
0,         70,         70,        1,   230400, 0x273a5890
